<svg _ngcontent-serverApp-c57="" xmlns="http://www.w3.org/2000/svg" height="100.851" viewBox="0 0 110.769 151.851"><g _ngcontent-serverApp-c57="" id="Group_59" data-name="Group 59" transform="translate(-353.364 -2277.446)"><g _ngcontent-serverApp-c57="" id="Group_47" data-name="Group 47" transform="translate(369.003 2305.807)"><g _ngcontent-serverApp-c57="" id="Group_42" data-name="Group 42" transform="translate(12.389 12.388)"><path _ngcontent-serverApp-c57="" id="Path_17" data-name="Path 17" d="M471.482,2468.385a35.176,35.176,0,1,1,35.177-35.176A35.216,35.216,0,0,1,471.482,2468.385Zm0-64.946a29.77,29.77,0,1,0,29.77,29.771A29.8,29.8,0,0,0,471.482,2403.439Z" transform="translate(-436.306 -2398.032)" fill="#fff"></path></g><g _ngcontent-serverApp-c57="" id="Group_43" data-name="Group 43" transform="translate(44.862)"><rect _ngcontent-serverApp-c57="" id="Rectangle_20" data-name="Rectangle 20" width="5.407" height="30.184" fill="#fff"></rect></g><g _ngcontent-serverApp-c57="" id="Group_44" data-name="Group 44" transform="translate(0 44.862)"><rect _ngcontent-serverApp-c57="" id="Rectangle_21" data-name="Rectangle 21" width="30.184" height="5.407" fill="#fff"></rect></g><g _ngcontent-serverApp-c57="" id="Group_45" data-name="Group 45" transform="translate(44.862 64.946)"><rect _ngcontent-serverApp-c57="" id="Rectangle_22" data-name="Rectangle 22" width="5.407" height="30.184" fill="#fff"></rect></g><g _ngcontent-serverApp-c57="" id="Group_46" data-name="Group 46" transform="translate(64.946 44.862)"><rect _ngcontent-serverApp-c57="" id="Rectangle_23" data-name="Rectangle 23" width="30.184" height="5.407" fill="#fff"></rect></g></g><g _ngcontent-serverApp-c57="" id="Group_58" data-name="Group 58" transform="translate(353.364 2277.446)"><g _ngcontent-serverApp-c57="" id="Group_56" data-name="Group 56"><g _ngcontent-serverApp-c57="" id="Group_50" data-name="Group 50"><g _ngcontent-serverApp-c57="" id="Group_49" data-name="Group 49"><g _ngcontent-serverApp-c57="" id="Group_48" data-name="Group 48"><path _ngcontent-serverApp-c57="" id="Path_18" data-name="Path 18" d="M358.771,2353.372h-5.407V2290.2c0-7.034,6.317-12.758,14.081-12.758h62c7.763,0,14.079,5.724,14.079,12.758v26.557h-5.407V2290.2c0-4.054-3.89-7.351-8.672-7.351h-62c-4.783,0-8.674,3.3-8.674,7.351Z" transform="translate(-353.364 -2277.446)" fill="#fff"></path></g></g></g><g _ngcontent-serverApp-c57="" id="Group_55" data-name="Group 55" transform="translate(0 75.926)"><g _ngcontent-serverApp-c57="" id="Group_54" data-name="Group 54"><g _ngcontent-serverApp-c57="" id="Group_51" data-name="Group 51"><path _ngcontent-serverApp-c57="" id="Path_19" data-name="Path 19" d="M429.443,2578.054h-62c-7.763,0-14.079-5.723-14.079-12.758V2502.13h5.407V2565.3c0,4.054,3.89,7.351,8.672,7.351h62c4.783,0,8.675-3.3,8.675-7.351V2538.74h5.407V2565.3C443.524,2572.331,437.207,2578.054,429.443,2578.054Z" transform="translate(-353.364 -2502.13)" fill="#fff"></path></g><g _ngcontent-serverApp-c57="" id="Group_53" data-name="Group 53" transform="translate(2.703 54.592)"><g _ngcontent-serverApp-c57="" id="Group_52" data-name="Group 52"><rect _ngcontent-serverApp-c57="" id="Rectangle_24" data-name="Rectangle 24" width="84.539" height="5.407" fill="#fff"></rect></g></g></g></g></g><g _ngcontent-serverApp-c57="" id="Group_57" data-name="Group 57" transform="translate(36.912 10.928)"><rect _ngcontent-serverApp-c57="" id="Rectangle_25" data-name="Rectangle 25" width="16.335" height="5.407" fill="#fff"></rect></g></g></g></svg>