<svg _ngcontent-serverApp-c57="" xmlns="http://www.w3.org/2000/svg" height="100.932" viewBox="0 0 105 157.932"><g _ngcontent-serverApp-c57="" id="Group_84" data-name="Group 84" transform="translate(-1842.087 -2263.501)"><g _ngcontent-serverApp-c57="" id="Group_81" data-name="Group 81" transform="translate(1842.087 2322.61)"><g _ngcontent-serverApp-c57="" id="Group_78" data-name="Group 78" transform="translate(0 0)"><g _ngcontent-serverApp-c57="" id="Group_77" data-name="Group 77"><path _ngcontent-serverApp-c57="" id="Path_32" data-name="Path 32" d="M1894.59,2541.183c-30.682,0-52.269-19.347-52.5-47.049,0-.092-.007-.266-.007-.437V2445a2.644,2.644,0,0,1,2.644-2.644h21.812a2.644,2.644,0,0,1,2.644,2.644v48.325c0,.067.006.217.006.368,0,19.405,21.156,20.387,25.4,20.387s25.4-.982,25.4-20.387V2445a2.644,2.644,0,0,1,2.644-2.644h21.812a2.644,2.644,0,0,1,2.644,2.644V2493.7C1947.087,2521.655,1925.5,2541.183,1894.59,2541.183Zm-47.215-93.535.006,46.365c.2,24.692,19.615,41.883,47.209,41.883,27.8,0,47.209-17.352,47.209-42.2v-46.049h-16.524V2493.7c0,18.951-16.531,25.675-30.686,25.675s-30.684-6.724-30.684-25.675l-.005-.284v-45.765Z" transform="translate(-1842.087 -2442.36)" fill="#fff"></path></g></g><g _ngcontent-serverApp-c57="" id="Group_79" data-name="Group 79" transform="translate(2.644 17.128)"><rect _ngcontent-serverApp-c57="" id="Rectangle_26" data-name="Rectangle 26" width="21.812" height="5.288" fill="#fff"></rect></g><g _ngcontent-serverApp-c57="" id="Group_80" data-name="Group 80" transform="translate(80.544 17.128)"><rect _ngcontent-serverApp-c57="" id="Rectangle_27" data-name="Rectangle 27" width="21.812" height="5.288" fill="#fff"></rect></g></g><g _ngcontent-serverApp-c57="" id="Group_82" data-name="Group 82" transform="translate(1845.02 2263.501)"><path _ngcontent-serverApp-c57="" id="Path_33" data-name="Path 33" d="M1864.095,2310.489l-5.031-1.629,6.853-21.163h-12.312a2.643,2.643,0,0,1-2.541-3.372l5.969-20.824,5.082,1.456-5,17.452h12.439a2.644,2.644,0,0,1,2.515,3.458Z" transform="translate(-1850.962 -2263.501)" fill="#fff"></path></g><g _ngcontent-serverApp-c57="" id="Group_83" data-name="Group 83" transform="translate(1922.92 2263.501)"><path _ngcontent-serverApp-c57="" id="Path_34" data-name="Path 34" d="M2099.813,2310.489l-5.03-1.629,6.854-21.163h-12.312a2.643,2.643,0,0,1-2.542-3.372l5.969-20.824,5.084,1.456-5,17.452h12.438a2.643,2.643,0,0,1,2.514,3.458Z" transform="translate(-2086.682 -2263.501)" fill="#fff"></path></g></g></svg>