<svg _ngcontent-serverApp-c57="" xmlns="http://www.w3.org/2000/svg" height="100.714" viewBox="0 0 174.548 151.714"><g _ngcontent-serverApp-c57="" id="Group_91" data-name="Group 91" transform="translate(-2513.312 -808.346)"><g _ngcontent-serverApp-c57="" id="Group_85" data-name="Group 85" transform="translate(2513.312 808.346)"><path _ngcontent-serverApp-c57="" id="Path_35" data-name="Path 35" d="M2544.413,934.365a3.068,3.068,0,0,1-3.069-3.069V908.334h-10.09a17.962,17.962,0,0,1-17.941-17.941V826.288a17.962,17.962,0,0,1,17.941-17.942H2616.2a17.963,17.963,0,0,1,17.942,17.942v64.105a17.962,17.962,0,0,1-17.942,17.941h-44.485l-25.131,25.131A3.063,3.063,0,0,1,2544.413,934.365Zm-13.16-119.881a11.816,11.816,0,0,0-11.8,11.8v64.105a11.816,11.816,0,0,0,11.8,11.8h13.16a3.07,3.07,0,0,1,3.069,3.069v18.621l20.79-20.791a3.07,3.07,0,0,1,2.17-.9H2616.2a11.816,11.816,0,0,0,11.8-11.8V826.288a11.817,11.817,0,0,0-11.8-11.8Z" transform="translate(-2513.312 -808.346)" fill="#fff"></path></g><g _ngcontent-serverApp-c57="" id="Group_86" data-name="Group 86" transform="translate(2567.031 834.041)"><path _ngcontent-serverApp-c57="" id="Path_36" data-name="Path 36" d="M2743.062,1001.34a3.065,3.065,0,0,1-2.17-.9l-25.131-25.131h-44.485a17.962,17.962,0,0,1-17.942-17.942h6.138a11.816,11.816,0,0,0,11.8,11.8h45.756a3.067,3.067,0,0,1,2.17.9l20.791,20.79V972.24a3.069,3.069,0,0,1,3.069-3.069h13.16a11.817,11.817,0,0,0,11.8-11.8V893.263a11.816,11.816,0,0,0-11.8-11.8h-27.458v-6.138h27.458a17.962,17.962,0,0,1,17.941,17.942v64.105a17.962,17.962,0,0,1-17.941,17.942h-10.09v22.961a3.07,3.07,0,0,1-3.069,3.069Z" transform="translate(-2653.335 -875.321)" fill="#fff"></path></g><g _ngcontent-serverApp-c57="" id="Group_90" data-name="Group 90" transform="translate(2535.984 845.794)"><g _ngcontent-serverApp-c57="" id="Group_87" data-name="Group 87" transform="translate(0)"><path _ngcontent-serverApp-c57="" id="Path_37" data-name="Path 37" d="M2582.375,925.886a9.965,9.965,0,1,1,9.965-9.965A9.977,9.977,0,0,1,2582.375,925.886Zm0-13.792a3.827,3.827,0,1,0,3.827,3.827A3.831,3.831,0,0,0,2582.375,912.094Z" transform="translate(-2572.409 -905.956)" fill="#fff"></path></g><g _ngcontent-serverApp-c57="" id="Group_88" data-name="Group 88" transform="translate(27.776)"><path _ngcontent-serverApp-c57="" id="Path_38" data-name="Path 38" d="M2654.774,925.886a9.965,9.965,0,1,1,9.966-9.965A9.976,9.976,0,0,1,2654.774,925.886Zm0-13.792a3.827,3.827,0,1,0,3.828,3.827A3.831,3.831,0,0,0,2654.774,912.094Z" transform="translate(-2644.808 -905.956)" fill="#fff"></path></g><g _ngcontent-serverApp-c57="" id="Group_89" data-name="Group 89" transform="translate(55.553)"><path _ngcontent-serverApp-c57="" id="Path_39" data-name="Path 39" d="M2727.174,925.886a9.965,9.965,0,1,1,9.966-9.965A9.976,9.976,0,0,1,2727.174,925.886Zm0-13.792a3.827,3.827,0,1,0,3.828,3.827A3.831,3.831,0,0,0,2727.174,912.094Z" transform="translate(-2717.21 -905.956)" fill="#fff"></path></g></g></g></svg>