<svg _ngcontent-serverApp-c57="" xmlns="http://www.w3.org/2000/svg" height="100" viewBox="0 0 157 153.468"><g _ngcontent-serverApp-c57="" id="Group_22" data-name="Group 22" transform="translate(-2532.788 -2296.219)"><g _ngcontent-serverApp-c57="" id="Group_17" data-name="Group 17" transform="translate(2532.788 2296.219)"><g _ngcontent-serverApp-c57="" id="Group_12" data-name="Group 12" transform="translate(0 0)"><path _ngcontent-serverApp-c57="" id="Path_5" data-name="Path 5" d="M2686.769,2449.687H2535.807a3.02,3.02,0,0,1-3.019-3.019v-147.43a3.019,3.019,0,0,1,3.019-3.019h150.961a3.019,3.019,0,0,1,3.019,3.019v147.43A3.019,3.019,0,0,1,2686.769,2449.687Zm-147.942-6.039H2683.75V2302.257H2538.826Z" transform="translate(-2532.788 -2296.219)" fill="#fff"></path></g><g _ngcontent-serverApp-c57="" id="Group_13" data-name="Group 13" transform="translate(12.46 24.354)"><rect _ngcontent-serverApp-c57="" id="Rectangle_9" data-name="Rectangle 9" width="132.08" height="6.038" fill="#fff"></rect></g><g _ngcontent-serverApp-c57="" id="Group_14" data-name="Group 14" transform="translate(15.147 13.048)"><path _ngcontent-serverApp-c57="" id="Path_6" data-name="Path 6" d="M2611.018,2336.832h-35.074a3.019,3.019,0,1,1,0-6.038h35.074a3.019,3.019,0,1,1,0,6.038Z" transform="translate(-2572.925 -2330.794)" fill="#fff"></path></g><g _ngcontent-serverApp-c57="" id="Group_15" data-name="Group 15" transform="translate(69.685 13.048)"><path _ngcontent-serverApp-c57="" id="Path_7" data-name="Path 7" d="M2724.309,2336.832h-3.853a3.019,3.019,0,1,1,0-6.038h3.853a3.019,3.019,0,1,1,0,6.038Z" transform="translate(-2717.437 -2330.794)" fill="#fff"></path></g><g _ngcontent-serverApp-c57="" id="Group_16" data-name="Group 16" transform="translate(92.422 13.048)"><path _ngcontent-serverApp-c57="" id="Path_8" data-name="Path 8" d="M2784.56,2336.832h-3.853a3.019,3.019,0,1,1,0-6.038h3.853a3.019,3.019,0,1,1,0,6.038Z" transform="translate(-2777.687 -2330.794)" fill="#fff"></path></g></g><g _ngcontent-serverApp-c57="" id="Group_18" data-name="Group 18" transform="translate(2551.519 2358.146)"><path _ngcontent-serverApp-c57="" id="Path_9" data-name="Path 9" d="M2631.187,2512.1H2585.44a3.02,3.02,0,0,1-3.019-3.019v-45.747a3.02,3.02,0,0,1,3.019-3.02h45.747a3.02,3.02,0,0,1,3.019,3.02v45.747A3.02,3.02,0,0,1,2631.187,2512.1Zm-42.728-6.039h39.708v-39.708h-39.708Z" transform="translate(-2582.421 -2460.313)" fill="#fff"></path></g><g _ngcontent-serverApp-c57="" id="Group_19" data-name="Group 19" transform="translate(2617.244 2358.146)"><rect _ngcontent-serverApp-c57="" id="Rectangle_10" data-name="Rectangle 10" width="31.785" height="6.038" transform="translate(0)" fill="#fff"></rect></g><g _ngcontent-serverApp-c57="" id="Group_20" data-name="Group 20" transform="translate(2617.244 2381.02)"><rect _ngcontent-serverApp-c57="" id="Rectangle_11" data-name="Rectangle 11" width="50.656" height="6.038" transform="translate(0 0)" fill="#fff"></rect></g><g _ngcontent-serverApp-c57="" id="Group_21" data-name="Group 21" transform="translate(2617.244 2403.893)"><rect _ngcontent-serverApp-c57="" id="Rectangle_12" data-name="Rectangle 12" width="50.656" height="6.038" transform="translate(0)" fill="#fff"></rect></g></g></svg>