<svg _ngcontent-serverApp-c57="" xmlns="http://www.w3.org/2000/svg" height="100.226" viewBox="0 0 188 139.226"><g _ngcontent-serverApp-c57="" id="Group_11" data-name="Group 11" transform="translate(-1015.804 -829.605)"><g _ngcontent-serverApp-c57="" id="Group_7" data-name="Group 7" transform="translate(1015.804 838.183)"><g _ngcontent-serverApp-c57="" id="Group_1" data-name="Group 1" transform="translate(0 68.561)"><path _ngcontent-serverApp-c57="" id="Path_1" data-name="Path 1" d="M1037.018,1081.884a3.1,3.1,0,0,1-2.824-1.824l-18.116-40.143a3.1,3.1,0,0,1,1.549-4.1l10.849-4.895a3.1,3.1,0,0,1,4.1,1.549l.45,1,15.924-4.567a3.1,3.1,0,0,1,3.678,1.7l12.73,28.209a3.1,3.1,0,0,1-1.156,3.886l-13.96,8.918.449,1a3.1,3.1,0,0,1-1.549,4.1l-10.849,4.9A3.088,3.088,0,0,1,1037.018,1081.884ZM1023,1040.192l15.567,34.5,5.2-2.347-.277-.615a3.1,3.1,0,0,1,1.156-3.886l13.96-8.918-10.525-23.324-15.925,4.567a3.1,3.1,0,0,1-3.678-1.7l-.278-.615Z" transform="translate(-1015.804 -1028.781)" fill="#fff"></path></g><g _ngcontent-serverApp-c57="" id="Group_2" data-name="Group 2" transform="translate(30.173 6.225)"><path _ngcontent-serverApp-c57="" id="Path_2" data-name="Path 2" d="M1108.447,964.967l-14.735-32.653,82.823-64.488,35.065,77.7Zm-7.082-30.759,10.725,23.766,90.621-17.076-28.584-63.343Z" transform="translate(-1093.712 -867.827)" fill="#fff"></path></g><g _ngcontent-serverApp-c57="" id="Group_3" data-name="Group 3" transform="translate(108.896 0)"><path _ngcontent-serverApp-c57="" id="Path_3" data-name="Path 3" d="M1337.214,938.75a10.068,10.068,0,0,1-9.157-5.917l-30.192-66.906a10.042,10.042,0,0,1,18.306-8.261l30.192,66.906a10.054,10.054,0,0,1-5.023,13.284h0A10.013,10.013,0,0,1,1337.214,938.75Zm-30.2-80.8a3.845,3.845,0,0,0-3.5,5.426l30.192,66.906a3.846,3.846,0,0,0,5.086,1.924h0a3.848,3.848,0,0,0,1.924-5.086l-30.192-66.905A3.851,3.851,0,0,0,1307.012,857.951Z" transform="translate(-1296.977 -851.754)" fill="#fff"></path></g><g _ngcontent-serverApp-c57="" id="Group_4" data-name="Group 4" transform="translate(12.676 75.691)"><rect _ngcontent-serverApp-c57="" id="Rectangle_4" data-name="Rectangle 4" width="6.196" height="16.462" transform="matrix(0.911, -0.411, 0.411, 0.911, 0, 2.549)" fill="#fff"></rect></g><g _ngcontent-serverApp-c57="" id="Group_5" data-name="Group 5" transform="translate(43.906 95.495)"><path _ngcontent-serverApp-c57="" id="Path_4" data-name="Path 4" d="M1144.488,1133.478a3.1,3.1,0,0,1-2.825-1.824l-12.492-27.68,5.647-2.549,11.218,24.856,9.179-4.143-9.6-21.264,5.647-2.549,10.871,24.088a3.1,3.1,0,0,1-1.549,4.1l-14.828,6.692A3.087,3.087,0,0,1,1144.488,1133.478Z" transform="translate(-1129.171 -1098.325)" fill="#fff"></path></g><g _ngcontent-serverApp-c57="" id="Group_6" data-name="Group 6" transform="translate(74.178 29.078)"><rect _ngcontent-serverApp-c57="" id="Rectangle_5" data-name="Rectangle 5" width="34.26" height="6.196" transform="translate(0 21.045) rotate(-37.899)" fill="#fff"></rect></g></g><g _ngcontent-serverApp-c57="" id="Group_8" data-name="Group 8" transform="translate(1178.094 860.165)"><rect _ngcontent-serverApp-c57="" id="Rectangle_6" data-name="Rectangle 6" width="15.952" height="6.196" transform="translate(0 6.563) rotate(-24.293)" fill="#fff"></rect></g><g _ngcontent-serverApp-c57="" id="Group_9" data-name="Group 9" transform="translate(1162.075 829.605)"><rect _ngcontent-serverApp-c57="" id="Rectangle_7" data-name="Rectangle 7" width="15.952" height="6.196" transform="translate(0 14.921) rotate(-69.282)" fill="#fff"></rect></g><g _ngcontent-serverApp-c57="" id="Group_10" data-name="Group 10" transform="translate(1186.691 893.279)"><rect _ngcontent-serverApp-c57="" id="Rectangle_8" data-name="Rectangle 8" width="6.196" height="15.952" transform="translate(0 5.796) rotate(-69.287)" fill="#fff"></rect></g></g></svg>