<svg _ngcontent-serverApp-c57="" xmlns="http://www.w3.org/2000/svg" height="100.468" viewBox="0 0 142.596 153.468"><g _ngcontent-serverApp-c57="" id="Group_76" data-name="Group 76" transform="translate(-3281.933 -787.828)"><g _ngcontent-serverApp-c57="" id="Group_67" data-name="Group 67" transform="translate(3281.933 787.828)"><g _ngcontent-serverApp-c57="" id="Group_64" data-name="Group 64" transform="translate(0 0)"><g _ngcontent-serverApp-c57="" id="Group_60" data-name="Group 60" transform="translate(30.614 73.387)"><path _ngcontent-serverApp-c57="" id="Path_20" data-name="Path 20" d="M3385.2,1052.095h-5.616v-8.25a6.826,6.826,0,0,0-.982-3.524l-7.674-12.711a12.5,12.5,0,0,1,.855-14.094l5.1-6.719a6.891,6.891,0,0,0,1.477-4.239V996.9h5.616v5.658a12.5,12.5,0,0,1-2.644,7.666l-5.1,6.72a6.87,6.87,0,0,0-.5,7.763l7.675,12.711a12.438,12.438,0,0,1,1.79,6.426Z" transform="translate(-3369.149 -996.901)" fill="#fff"></path></g><g _ngcontent-serverApp-c57="" id="Group_61" data-name="Group 61" transform="translate(0 18.385)"><path _ngcontent-serverApp-c57="" id="Path_21" data-name="Path 21" d="M3299.254,903.5a12.392,12.392,0,0,1-8.792-3.626l-4.888-4.886a12.356,12.356,0,0,1-3.642-8.793V882.6a12.353,12.353,0,0,1,3.642-8.792l33.607-33.607,3.971,3.971-33.607,33.607a6.87,6.87,0,0,0-2,4.821v3.59a6.776,6.776,0,0,0,2,4.822l4.888,4.886a6.839,6.839,0,0,0,9.593.049,12.364,12.364,0,0,1,8.7-3.552h22.127c9.451,0,11.893-14.093,11.916-14.235l5.544.9c-.126.774-3.23,18.95-17.46,18.95h-22.127a6.782,6.782,0,0,0-4.772,1.948A12.4,12.4,0,0,1,3299.254,903.5Z" transform="translate(-3281.933 -840.206)" fill="#fff"></path></g><g _ngcontent-serverApp-c57="" id="Group_62" data-name="Group 62" transform="translate(19.273)"><path _ngcontent-serverApp-c57="" id="Path_22" data-name="Path 22" d="M3425.653,840.237h-5.616v-5.469a6.8,6.8,0,0,0-.062-.93c-.453-3.247-3.077-15-17.853-29.777-15.365-15.363-47.025-12.3-59.55-2.163a.3.3,0,0,0-.118.221.218.218,0,0,0,.069.178l10.09,10.09-3.971,3.971-10.09-10.09a5.854,5.854,0,0,1-1.706-4.443,5.937,5.937,0,0,1,2.192-4.292c14.023-11.348,49.131-15.364,67.055,2.558,16.011,16.01,18.931,29.289,19.444,32.977a12.19,12.19,0,0,1,.115,1.7Z" transform="translate(-3336.839 -787.828)" fill="#fff"></path></g><g _ngcontent-serverApp-c57="" id="Group_63" data-name="Group 63" transform="translate(58.297 10.762)"><path _ngcontent-serverApp-c57="" id="Path_23" data-name="Path 23" d="M3478.661,850.845a75.9,75.9,0,0,0-13.526-17.748,35.806,35.806,0,0,0-17.12-9.157l1.341-5.453a41.308,41.308,0,0,1,19.75,10.639,81.453,81.453,0,0,1,14.513,19.082Z" transform="translate(-3448.015 -818.487)" fill="#fff"></path></g></g><g _ngcontent-serverApp-c57="" id="Group_65" data-name="Group 65" transform="translate(30.599 125.773)"><path _ngcontent-serverApp-c57="" id="Path_24" data-name="Path 24" d="M3374.724,1160.063h-5.616V1155a8.869,8.869,0,0,1,8.859-8.859h42.445v5.616h-42.445a3.247,3.247,0,0,0-3.243,3.243Z" transform="translate(-3369.108 -1146.143)" fill="#fff"></path></g><g _ngcontent-serverApp-c57="" id="Group_66" data-name="Group 66" transform="translate(20.748 136.885)"><path _ngcontent-serverApp-c57="" id="Path_25" data-name="Path 25" d="M3346.658,1194.248h-5.616v-7.588c0-4.885,4.766-8.859,10.625-8.859H3397.9v5.616h-46.228c-2.952,0-5.009,1.709-5.009,3.243Z" transform="translate(-3341.042 -1177.801)" fill="#fff"></path></g></g><g _ngcontent-serverApp-c57="" id="Group_75" data-name="Group 75" transform="translate(3362.66 843.005)"><g _ngcontent-serverApp-c57="" id="Group_72" data-name="Group 72" transform="translate(0 42.532)"><g _ngcontent-serverApp-c57="" id="Group_68" data-name="Group 68" transform="translate(41.643)"><path _ngcontent-serverApp-c57="" id="Path_26" data-name="Path 26" d="M3639.819,1111.831c-10.144-33.041-9.27-45.138-9.229-45.637l5.6.473-2.8-.237,2.8.22c-.009.114-.724,11.859,9,43.532Z" transform="translate(-3630.555 -1066.194)" fill="#fff"></path></g><g _ngcontent-serverApp-c57="" id="Group_69" data-name="Group 69" transform="translate(27.653 42.005)"><path _ngcontent-serverApp-c57="" id="Path_27" data-name="Path 27" d="M3624.914,1199.615H3619.3v-5.672c0-1.389-.781-2.465-1.455-2.465H3590.7v-5.616h27.145c3.9,0,7.071,3.625,7.071,8.082Z" transform="translate(-3590.698 -1185.862)" fill="#fff"></path></g><g _ngcontent-serverApp-c57="" id="Group_70" data-name="Group 70" transform="translate(5.593)"><path _ngcontent-serverApp-c57="" id="Path_28" data-name="Path 28" d="M3533.22,1111.831l-5.369-1.648c9.827-32.013,9.01-43.4,9-43.516l5.6-.473C3542.489,1066.693,3543.362,1078.79,3533.22,1111.831Z" transform="translate(-3527.851 -1066.194)" fill="#fff"></path></g><g _ngcontent-serverApp-c57="" id="Group_71" data-name="Group 71" transform="translate(0 42.005)"><path _ngcontent-serverApp-c57="" id="Path_29" data-name="Path 29" d="M3517.533,1199.615h-5.616v-5.672c0-4.456,3.171-8.082,7.071-8.082h20.582v5.616h-20.582c-.673,0-1.455,1.077-1.455,2.465Z" transform="translate(-3511.917 -1185.862)" fill="#fff"></path></g></g><g _ngcontent-serverApp-c57="" id="Group_73" data-name="Group 73" transform="translate(5.365 30.19)"><path _ngcontent-serverApp-c57="" id="Path_30" data-name="Path 30" d="M3570.646,1046.419H3534.9a7.693,7.693,0,0,1,0-15.387h35.751a7.693,7.693,0,1,1,0,15.387Zm-35.751-9.771a2.077,2.077,0,0,0,0,4.155h35.751a2.077,2.077,0,1,0,0-4.155Z" transform="translate(-3527.202 -1031.032)" fill="#fff"></path></g><g _ngcontent-serverApp-c57="" id="Group_74" data-name="Group 74" transform="translate(10.835)"><path _ngcontent-serverApp-c57="" id="Path_31" data-name="Path 31" d="M3576.27,980.117l-3.741-4.189a14.484,14.484,0,1,0-19.291,0l-3.74,4.188a20.1,20.1,0,1,1,26.771,0Z" transform="translate(-3542.784 -945.024)" fill="#fff"></path></g></g></g></svg>