<svg _ngcontent-serverApp-c57="" xmlns="http://www.w3.org/2000/svg" height="100" viewBox="0 0 161.391 151.714"><g _ngcontent-serverApp-c57="" id="Group_41" data-name="Group 41" transform="translate(-279.472 -778.8)"><g _ngcontent-serverApp-c57="" id="Group_26" data-name="Group 26" transform="translate(279.472 812.032)"><g _ngcontent-serverApp-c57="" id="Group_23" data-name="Group 23" transform="translate(144.038 70.907)"><rect _ngcontent-serverApp-c57="" id="Rectangle_13" data-name="Rectangle 13" width="5.34" height="23.404" fill="#fff"></rect></g><g _ngcontent-serverApp-c57="" id="Group_24" data-name="Group 24" transform="translate(11.809 0)"><path _ngcontent-serverApp-c57="" id="Path_10" data-name="Path 10" d="M320.194,972.686h-5.34V881.044a2.67,2.67,0,0,1,2.67-2.67H333.58v5.34H320.194Z" transform="translate(-314.854 -878.374)" fill="#fff"></path></g><g _ngcontent-serverApp-c57="" id="Group_25" data-name="Group 25" transform="translate(0 91.642)"><path _ngcontent-serverApp-c57="" id="Path_11" data-name="Path 11" d="M426.158,1179.8H293.976c-8,0-14.5-5.695-14.5-12.695v-11.475a2.67,2.67,0,0,1,2.67-2.67H343a2.67,2.67,0,0,1,2.67,2.67v6.393h28.788v-6.393a2.67,2.67,0,0,1,2.67-2.67h60.861a2.67,2.67,0,0,1,2.67,2.67v11.475C440.662,1174.107,434.156,1179.8,426.158,1179.8Zm-141.346-21.5v8.805c0,4.055,4.111,7.355,9.164,7.355H426.158c5.053,0,9.164-3.3,9.164-7.355V1158.3H379.8v6.393a2.67,2.67,0,0,1-2.67,2.67H343a2.67,2.67,0,0,1-2.67-2.67V1158.3Z" transform="translate(-279.472 -1152.962)" fill="#fff"></path></g></g><g _ngcontent-serverApp-c57="" id="Group_40" data-name="Group 40" transform="translate(315.317 778.8)"><g _ngcontent-serverApp-c57="" id="Group_36" data-name="Group 36" transform="translate(4.476)"><g _ngcontent-serverApp-c57="" id="Group_32" data-name="Group 32"><g _ngcontent-serverApp-c57="" id="Group_27" data-name="Group 27" transform="translate(31.801 20.233)"><path _ngcontent-serverApp-c57="" id="Path_12" data-name="Path 12" d="M568.994,897.06H504.758v-5.34h64.236a3.474,3.474,0,0,0,3.426-2.877l7.027-40a3.478,3.478,0,0,0-3.426-4.08h-80.45v-5.34h80.45a8.818,8.818,0,0,1,8.685,10.343l-7.027,40A8.805,8.805,0,0,1,568.994,897.06Z" transform="translate(-495.571 -839.425)" fill="#fff"></path></g><g _ngcontent-serverApp-c57="" id="Group_28" data-name="Group 28"><path _ngcontent-serverApp-c57="" id="Path_13" data-name="Path 13" d="M434.135,828.789,427.1,788.733a5.545,5.545,0,0,0-5.47-4.593H400.286V778.8h21.342a10.875,10.875,0,0,1,10.729,9.009l7.037,40.056Z" transform="translate(-400.286 -778.8)" fill="#fff"></path></g><g _ngcontent-serverApp-c57="" id="Group_29" data-name="Group 29" transform="translate(35.795 60.143)"><path _ngcontent-serverApp-c57="" id="Path_14" data-name="Path 14" d="M582.624,992.683H522.439a10.875,10.875,0,0,1-10.729-9.008l-4.172-23.744,5.259-.924,4.172,23.744a5.544,5.544,0,0,0,5.47,4.592h60.185Z" transform="translate(-507.538 -959.007)" fill="#fff"></path></g><g _ngcontent-serverApp-c57="" id="Group_30" data-name="Group 30" transform="translate(51.551 96.185)"><path _ngcontent-serverApp-c57="" id="Path_15" data-name="Path 15" d="M563.5,1075.747a8.758,8.758,0,0,1-8.748-8.748h5.34a3.408,3.408,0,0,0,6.816,0h5.34A8.758,8.758,0,0,1,563.5,1075.747Z" transform="translate(-554.749 -1066.999)" fill="#fff"></path></g><g _ngcontent-serverApp-c57="" id="Group_31" data-name="Group 31" transform="translate(82.712 96.185)"><path _ngcontent-serverApp-c57="" id="Path_16" data-name="Path 16" d="M656.863,1075.747a8.757,8.757,0,0,1-8.747-8.748h5.34a3.408,3.408,0,1,0,6.815,0h5.34A8.758,8.758,0,0,1,656.863,1075.747Z" transform="translate(-648.116 -1066.999)" fill="#fff"></path></g></g><g _ngcontent-serverApp-c57="" id="Group_33" data-name="Group 33" transform="translate(72.527 36.293)"><rect _ngcontent-serverApp-c57="" id="Rectangle_14" data-name="Rectangle 14" width="5.34" height="25.516" fill="#fff"></rect></g><g _ngcontent-serverApp-c57="" id="Group_34" data-name="Group 34" transform="translate(88.885 36.293)"><rect _ngcontent-serverApp-c57="" id="Rectangle_15" data-name="Rectangle 15" width="5.34" height="25.516" fill="#fff"></rect></g><g _ngcontent-serverApp-c57="" id="Group_35" data-name="Group 35" transform="translate(55.976 36.293)"><rect _ngcontent-serverApp-c57="" id="Rectangle_16" data-name="Rectangle 16" width="5.34" height="25.516" fill="#fff"></rect></g></g><g _ngcontent-serverApp-c57="" id="Group_37" data-name="Group 37" transform="translate(0 31.318)"><rect _ngcontent-serverApp-c57="" id="Rectangle_17" data-name="Rectangle 17" width="19.243" height="5.34" fill="#fff"></rect></g><g _ngcontent-serverApp-c57="" id="Group_38" data-name="Group 38" transform="translate(19.752 52.44)"><rect _ngcontent-serverApp-c57="" id="Rectangle_18" data-name="Rectangle 18" width="26.87" height="5.34" fill="#fff"></rect></g><g _ngcontent-serverApp-c57="" id="Group_39" data-name="Group 39" transform="translate(12.618 79.996)"><rect _ngcontent-serverApp-c57="" id="Rectangle_19" data-name="Rectangle 19" width="23.659" height="5.34" fill="#fff"></rect></g></g></g></svg>